# xmcd CD database file
#
# Track frame offsets:
#	150
#	11837
#	25086
#	37801
#	47688
#	57516
#	70034
#	82303
#	94923
#	107281
#	120103
#	132773
#	145222
#	157839
#	167699
#	179238
#	190357
#	203791
#	216213
#	228618
#	241017
#	253838
#	266254
#
# Disc length: 3719 seconds
#
# Revision: 0
# Processed by: cddbd v1.5.2PL0 Copyright (c) Steve Scherf et al.
# Submitted via: CDex 1.51
#
DISCID=3b0e8517
DTITLE=Rome Johnson and His Saddle Pals - My Dreamboat Is Drifting
DYEAR=1900
DGENRE=Country
TTITLE0=Rome Johnson/Foolish Me For Loving You
TTITLE1=Rome Johnson/Faded Love And Winter Roses
TTITLE2=Rome Johnson/My Dreamboat Is Drifting
TTITLE3=Rome Johnson/Georgia Blues
TTITLE4=Rome Johnson/My Heart Is An Open Book
TTITLE5=Rome Johnson/Forever And A Day
TTITLE6=Rome Johnson/If I Didn't Love You
TTITLE7=Rome Johnson/The Willow And Me
TTITLE8=Rome Johnson/I Guess I've Been Asleep (For All These Years)
TTITLE9=Rome Johnson/Indiana Waltz
TTITLE10=Rome Johnson/No One Will Ever Know
TTITLE11=Rome Johnson/There's No Room In My Heart For The Blues
TTITLE12=Rome Johnson/Down In My Neck Of The Woods
TTITLE13=Rome Johnson/Woman And Wine
TTITLE14=Rome Johnson/Rio Grande Valley
TTITLE15=Rome Johnson/A Stain Upon My Heart
TTITLE16=Rome Johnson/What A Difference (Just A Year Can Make)
TTITLE17=Rome Johnson/Waltz Of The Wind
TTITLE18=Rome Johnson/Love Flew Out Of The Window
TTITLE19=Rome Johnson/Someday You'll Thank Me
TTITLE20=Rome Johnson/Look To The Sea
TTITLE21=Rome Johnson/It's Funny Now (But It Wasn't Funny Then)
TTITLE22=Rome Johnson/You Have Changed
EXTD=
EXTT0=
EXTT1=
EXTT2=
EXTT3=
EXTT4=
EXTT5=
EXTT6=
EXTT7=
EXTT8=
EXTT9=
EXTT10=
EXTT11=
EXTT12=
EXTT13=
EXTT14=
EXTT15=
EXTT16=
EXTT17=
EXTT18=
EXTT19=
EXTT20=
EXTT21=
EXTT22=
PLAYORDER=
